HIERARCHY
ROOT Hips
{
	OFFSET 0.000000 8.830580 0.000000
	CHANNELS 6 Xposition Yposition Zposition Zrotation Yrotation Xrotation 
	JOINT Spine
	{
		OFFSET 0.000000 0.010000 0.000000
		CHANNELS 3 Zrotation Yrotation Xrotation
		JOINT Spine1
		{
			OFFSET 0.000000 2.459130 0.000000
			CHANNELS 3 Zrotation Yrotation Xrotation
			JOINT Neck
			{
				OFFSET 0.000000 2.484630 0.000000
				CHANNELS 3 Zrotation Yrotation Xrotation
				JOINT Head_virtual
				{
					OFFSET 0.000000 0.000000 0.000000
					CHANNELS 3 Zrotation Yrotation Xrotation
					JOINT Head
					{
						OFFSET 0.000000 0.927525 0.000000
						CHANNELS 3 Zrotation Yrotation Xrotation
						End Site
						{
							OFFSET 0.000000 0.000000 0.000000
						}
					}
				}
				JOINT LeftUpArm_virtual
				{
					OFFSET 0.000000 0.000000 0.000000
					CHANNELS 3 Zrotation Yrotation Xrotation
					JOINT LeftUpArm
					{
						OFFSET 1.248820 0.000000 0.000000
						CHANNELS 3 Zrotation Yrotation Xrotation
						JOINT LeftForeArm
						{
							OFFSET 2.597580 0.000000 0.000000
							CHANNELS 3 Zrotation Yrotation Xrotation
							JOINT LeftHand
							{
								OFFSET 2.455420 0.000000 0.000000
								CHANNELS 3 Zrotation Yrotation Xrotation
								End Site
								{
									OFFSET 0.000000 0.000000 0.000000
								}
							}
						}
					}
				}
				JOINT RightUpArm_virtual
				{
					OFFSET -0.000000 -0.000000 -0.000000
					CHANNELS 3 Zrotation Yrotation Xrotation
					JOINT RightUpArm
					{
						OFFSET -1.248820 -0.000000 -0.000000
						CHANNELS 3 Zrotation Yrotation Xrotation
						JOINT RightForeArm
						{
							OFFSET -2.597580 -0.000000 -0.000000
							CHANNELS 3 Zrotation Yrotation Xrotation
							JOINT RightHand
							{
								OFFSET -2.455420 -0.000000 -0.000000
								CHANNELS 3 Zrotation Yrotation Xrotation
								End Site
								{
									OFFSET 0.000000 0.000000 0.000000
								}
							}
						}
					}
				}
			}
		}
	}
	JOINT LeftUpLeg
	{
		OFFSET 1.271939 0.000000 0.000000
		CHANNELS 3 Zrotation Yrotation Xrotation
		JOINT LeftLowLeg
		{
			OFFSET 0.000000 -4.342910 0.000000
			CHANNELS 3 Zrotation Yrotation Xrotation
			JOINT LeftFoot
			{
				OFFSET 0.000000 -4.487670 0.000000
				CHANNELS 3 Zrotation Yrotation Xrotation
				JOINT LeftToeBase
				{
					OFFSET 0.000000 0.000000 1.515070
					CHANNELS 3 Zrotation Yrotation Xrotation
					End Site
					{
						OFFSET 0.000000 0.000000 0.000000
					}
				}
			}
		}
	}
	JOINT RightUpLeg
	{
		OFFSET -1.271939 0.000000 0.000000
		CHANNELS 3 Zrotation Yrotation Xrotation
		JOINT RightLowLeg
		{
			OFFSET 0.000000 -4.342910 0.000000
			CHANNELS 3 Zrotation Yrotation Xrotation
			JOINT RightFoot
			{
				OFFSET 0.000000 -4.487670 0.000000
				CHANNELS 3 Zrotation Yrotation Xrotation
				JOINT RightToeBase
				{
					OFFSET 0.000000 0.000000 1.515070
					CHANNELS 3 Zrotation Yrotation Xrotation
					End Site
					{
						OFFSET 0.000000 0.000000 0.000000
					}
				}
			}
		}
	}
}
MOTION
Frames: 11
Frame Time: 0.041667
-18.583406 6.800561 37.593648 -172.507637 4.320794 145.153534 -4.929478 -0.889717 17.067520 19.836795 -5.356128 30.959458 0.000000 0.000000 0.000000 -11.628159 -2.279915 26.849209 18.112223 2.211059 -87.608723 -37.352501 -0.186577 6.318690 -36.228500 -19.440300 19.297001 -180.000000 -80.066399 180.000000 36.553101 15.835500 -21.285500 23.007000 3.943470 17.398010 26.521999 21.722000 7.498210 180.000000 79.008003 180.000000 -20.649099 -13.813800 -22.735800 5.802356 -0.415374 -48.187081 0.000000 0.000000 106.472000 -20.636216 8.811904 18.091991 0.000000 0.000000 -53.492298 3.184093 -2.708955 -29.004492 0.000000 0.000000 61.347801 27.461925 10.844841 17.838589 0.000000 0.000000 -50.024101 
-18.578253 6.796679 37.605745 -172.518331 4.192389 144.965695 -5.207636 -0.946525 17.200220 20.118374 -5.558116 31.173733 0.000000 0.000000 0.000000 -11.493968 -2.331759 27.276102 17.985579 2.157565 -86.773838 -37.463299 -0.291610 6.426590 -36.814999 -19.362700 18.061300 180.000000 -79.449997 -180.000000 35.593201 16.184099 -22.093901 23.103701 3.965430 17.225006 26.984200 22.194201 7.621400 180.000000 78.850998 180.000000 -22.910299 -12.917200 -20.216600 5.340850 0.366750 -48.439125 0.000000 0.000000 107.228996 -21.122391 8.785710 18.132672 0.000000 0.000000 -53.391201 3.134640 -2.821762 -28.600571 0.000000 0.000000 60.681599 26.545191 10.817143 17.859374 0.000000 0.000000 -49.724201 
-18.571959 6.793753 37.619051 -172.567022 4.097130 144.744161 -5.554134 -0.953212 17.540106 20.561914 -5.683800 31.165211 0.000000 0.000000 0.000000 -11.603476 -2.080724 27.811081 18.264196 2.009523 -86.237309 -37.682499 -0.332668 6.543950 -37.480900 -19.255600 16.780701 -180.000000 -78.907997 180.000000 34.803101 16.145800 -21.980600 23.278601 3.935500 17.197998 27.190599 22.671101 7.484770 -180.000000 78.421997 -180.000000 -22.964600 -13.399100 -20.493900 4.954811 1.134068 -48.487677 0.000000 0.000000 107.696999 -21.924077 8.637246 18.240226 0.000000 0.000000 -53.892200 3.083993 -2.855292 -28.199634 0.000000 0.000000 60.151600 25.120467 10.611730 17.800972 0.000000 0.000000 -49.438999 
-18.564866 6.791277 37.632797 -172.670095 4.077085 144.503611 -5.948139 -0.905356 18.014627 21.057172 -5.742268 30.995868 0.000000 0.000000 0.000000 -11.642296 -2.117638 28.095944 18.198556 1.722527 -85.550023 -37.923599 -0.276696 6.549750 -38.236500 -19.074800 15.643700 180.000000 -78.224998 -180.000000 34.359402 16.292299 -20.976400 23.371401 4.004750 16.976013 27.580900 22.822399 7.796650 180.000000 77.889000 180.000000 -23.251600 -13.473900 -20.952000 4.680089 1.941428 -48.330939 0.000000 0.000000 107.935997 -23.132287 8.023415 18.225299 0.000000 0.000000 -54.237099 3.061428 -2.846251 -27.861457 0.000000 0.000000 59.900501 24.144183 10.234499 17.883552 0.000000 0.000000 -49.501301 
-18.557954 6.789817 37.645283 -172.859655 4.099622 144.322209 -6.368369 -0.800621 18.423763 21.547210 -5.775969 30.875468 0.000000 0.000000 0.000000 -11.849373 -1.879895 28.236733 18.386360 1.339638 -85.037604 -38.156502 -0.208602 6.633650 -38.819000 -18.988701 14.711900 180.000000 -77.599998 -180.000000 34.358601 16.017799 -20.120199 23.525000 3.964700 16.897003 27.674400 23.408501 7.885080 180.000000 77.419998 180.000000 -22.989901 -14.127900 -21.326000 4.431172 2.742631 -48.058889 0.000000 0.000000 108.033997 -24.298767 7.095318 17.950448 0.000000 0.000000 -54.368000 3.012050 -2.838693 -27.734960 0.000000 0.000000 59.880699 23.030988 9.940719 17.982634 0.000000 0.000000 -50.361698 
-18.551428 6.789273 37.655567 -173.033885 4.148920 144.195697 -6.563053 -0.676771 18.806661 21.687212 -5.713709 30.760274 0.000000 0.000000 0.000000 -11.899177 -1.746609 28.302787 18.448482 1.218055 -84.730462 -38.337601 -0.103287 6.705610 -39.139801 -18.985100 14.072600 -180.000000 -76.963997 180.000000 34.529202 16.078100 -19.395599 23.553499 4.092180 16.834991 28.088499 23.453600 8.242220 180.000000 76.775002 -180.000000 -23.440399 -13.621500 -21.296000 4.269036 3.482391 -47.729257 0.000000 0.000000 108.069000 -25.761729 5.589601 17.443182 0.000000 0.000000 -54.782001 2.980648 -2.843341 -27.722462 0.000000 0.000000 60.007702 23.042294 9.824436 18.053737 0.000000 0.000000 -50.448799 
-18.547777 6.788870 37.662979 -173.153569 4.197129 144.057656 -6.518742 -0.627706 19.219298 21.448046 -5.626242 30.617915 0.000000 0.000000 0.000000 -11.809224 -1.744877 28.334714 18.248373 1.280092 -84.465156 -38.428001 0.018246 6.746610 -39.360901 -18.977699 13.671800 -180.000000 -76.431999 180.000000 35.592899 15.915900 -19.461901 23.616301 4.279920 16.998993 28.387300 23.482201 8.675490 -180.000000 76.139000 -180.000000 -24.468599 -12.798200 -21.078199 4.148024 4.140387 -47.341437 0.000000 0.000000 108.206001 -27.264493 3.491615 16.499942 0.000000 0.000000 -53.334900 2.959370 -2.888310 -27.665250 0.000000 0.000000 60.014000 22.778840 9.882437 17.933601 0.000000 0.000000 -50.376499 
-18.545612 6.788667 37.667511 -173.260994 4.207981 144.051024 -6.387060 -0.586020 19.548963 21.196631 -5.481535 30.381488 0.000000 0.000000 0.000000 -11.730480 -1.747527 28.320273 18.146283 1.309476 -84.224599 -38.447899 0.069614 6.755630 -39.512501 -18.821199 13.321400 -180.000000 -75.831001 -180.000000 34.613300 16.496401 -18.431101 23.719999 4.296760 17.385010 28.373199 23.815701 8.828760 -180.000000 75.463997 -180.000000 -25.492701 -12.758900 -20.280500 3.975178 4.741377 -47.090411 0.000000 0.000000 108.391998 -29.015915 0.966343 15.517046 0.000000 0.000000 -52.173100 2.905060 -2.982884 -27.745627 0.000000 0.000000 60.095901 22.578857 9.905166 17.971557 0.000000 0.000000 -50.276299 
-18.545472 6.788732 37.668748 -173.329568 4.155973 144.069655 -6.108313 -0.614466 19.852590 20.743167 -5.340808 30.143939 0.000000 0.000000 0.000000 -11.669972 -1.687980 28.299626 18.154648 1.391955 -84.132179 -38.371399 0.115805 6.830850 -39.618999 -18.768600 13.101700 -180.000000 -75.362000 -180.000000 34.485001 16.681601 -17.735701 23.775801 4.322450 17.579987 28.463301 24.007799 9.160680 -180.000000 74.765999 -180.000000 -26.328899 -13.024500 -19.332800 3.729093 5.264356 -46.898428 0.000000 0.000000 108.688004 -31.231168 -1.744706 14.239087 0.000000 0.000000 -50.475800 2.819090 -3.130237 -27.789241 0.000000 0.000000 60.111000 22.451305 9.884784 18.105964 0.000000 0.000000 -50.334400 
-18.546699 6.790257 37.665997 -173.326789 4.042759 144.190809 -5.679339 -0.697946 20.047452 20.159680 -5.181855 29.903780 0.000000 0.000000 0.000000 -11.501504 -1.754113 28.246773 18.061439 1.578695 -84.049220 -38.273998 0.082439 6.767530 -39.555500 -18.540501 13.253100 180.000000 -74.946999 -180.000000 35.111900 16.147100 -17.581800 23.932301 4.247520 17.653015 28.413601 24.111799 9.616270 180.000000 74.121002 180.000000 -27.399401 -13.083100 -18.118700 3.366709 5.701406 -46.846877 0.000000 0.000000 109.115997 -33.290643 -4.381440 12.719964 0.000000 0.000000 -48.523602 2.751851 -3.363601 -27.857355 0.000000 0.000000 60.052799 22.359925 9.786952 18.294705 0.000000 0.000000 -50.433701 
-18.548264 6.792545 37.660048 -173.308762 3.841046 144.331292 -5.292014 -0.801430 20.187861 19.654914 -5.063754 29.694542 0.000000 0.000000 0.000000 -11.370209 -1.770545 28.068462 18.036755 1.650973 -83.858001 -38.158298 0.009838 6.907070 -39.572601 -18.387800 13.127800 -180.000000 -74.418999 180.000000 34.185501 16.278299 -15.975600 24.011101 4.124080 17.667999 28.433701 24.193501 9.962090 180.000000 73.514000 180.000000 -27.984501 -13.056400 -17.316999 2.888925 5.993226 -46.847205 0.000000 0.000000 109.622002 -34.622548 -6.826812 10.808666 0.000000 0.000000 -46.545900 2.640599 -3.591664 -27.936159 0.000000 0.000000 60.002998 22.075485 9.725983 18.357107 0.000000 0.000000 -50.425701 
